<?xml version="1.0" encoding="UTF-8" standalone="no"?>
<svg
   width="16"
   height="16"
   fill="currentColor"
   class="bi bi-globe"
   viewBox="0 0 16 16"
   version="1.1"
   id="svg1"
   sodipodi:docname="globe.svg"
   inkscape:version="1.3 (0e150ed6c4, 2023-07-21)"
   xmlns:inkscape="http://www.inkscape.org/namespaces/inkscape"
   xmlns:sodipodi="http://sodipodi.sourceforge.net/DTD/sodipodi-0.dtd"
   xmlns="http://www.w3.org/2000/svg"
   xmlns:svg="http://www.w3.org/2000/svg">
  <defs
     id="defs1" />
  <sodipodi:namedview
     id="namedview1"
     pagecolor="#ffffff"
     bordercolor="#000000"
     borderopacity="0.25"
     inkscape:showpageshadow="2"
     inkscape:pageopacity="0.0"
     inkscape:pagecheckerboard="0"
     inkscape:deskcolor="#d1d1d1"
     inkscape:zoom="34.3125"
     inkscape:cx="8"
     inkscape:cy="12.021858"
     inkscape:window-width="1366"
     inkscape:window-height="745"
     inkscape:window-x="-8"
     inkscape:window-y="-8"
     inkscape:window-maximized="1"
     inkscape:current-layer="svg1" />
  <path
     d="M 0.96174863,8 A 7.0382514,7.0382514 0 1 1 15.038251,8 7.0382514,7.0382514 0 0 1 0.96174863,8 Z M 7.5601093,1.9092732 C 6.9706557,2.0887486 6.3856011,2.630694 5.8999617,3.5412678 A 7.0118579,7.0118579 0 0 0 5.488224,4.4808743 H 7.5601093 Z M 4.5600546,4.4808743 A 8.1529344,8.1529344 0 0 1 5.1231148,3.1268907 5.8945355,5.8945355 0 0 1 5.6483443,2.3060546 6.1804645,6.1804645 0 0 0 2.9456557,4.4808743 Z M 4.0480219,7.5601093 C 4.0744153,6.788541 4.1694317,6.0486448 4.3225137,5.3606557 H 2.4345027 A 6.1215191,6.1215191 0 0 0 1.8573661,7.5601093 Z M 5.2260492,5.3606557 A 10.997268,10.997268 0 0 0 4.9286831,7.5601093 H 7.5601093 V 5.3606557 Z m 3.2138415,0 V 7.5601093 H 11.070437 A 10.992869,10.992869 0 0 0 10.773951,5.3606557 Z M 4.9295628,8.4398907 A 10.997268,10.997268 0 0 0 5.2260492,10.639344 H 7.5601093 V 8.4398907 Z m 3.5103279,0 V 10.639344 H 10.773951 C 10.93847,9.9663115 11.043164,9.2246557 11.071317,8.4398907 Z M 5.488224,11.519126 c 0.1214099,0.339595 0.2595356,0.654557 0.4117377,0.939606 0.4856394,0.910574 1.0715738,1.45164 1.6601476,1.631995 v -2.571601 z m 0.1601203,2.174819 A 5.8910164,5.8910164 0 0 1 5.1231148,12.873109 8.1538142,8.1538142 0 0 1 4.5600546,11.519126 H 2.9456557 a 6.1795847,6.1795847 0 0 0 2.7026886,2.174819 z M 4.3225137,10.639344 A 12.010776,12.010776 0 0 1 4.0480219,8.4398907 H 1.8573661 c 0.054547,0.7830055 0.2560164,1.5246612 0.5771366,2.1994533 z m 6.0291423,3.054601 a 6.1795847,6.1795847 0 0 0 2.702688,-2.174819 h -1.614399 a 8.1555738,8.1555738 0 0 1 -0.56306,1.353983 5.8839781,5.8839781 0 0 1 -0.525229,0.820836 z M 8.4398907,11.519126 v 2.571601 c 0.5894536,-0.179476 1.1745082,-0.721421 1.6601473,-1.631995 0.152202,-0.285049 0.290328,-0.600011 0.411738,-0.939606 z m 3.2375953,-0.879782 h 1.888011 c 0.32112,-0.6747921 0.52259,-1.4164478 0.577137,-2.1994533 H 11.951978 A 12.009016,12.009016 0 0 1 11.677486,10.639344 Z M 14.142634,7.5601093 A 6.1223989,6.1223989 0 0 0 13.565497,5.3606557 h -1.888011 c 0.153082,0.6879891 0.248099,1.4278853 0.274492,2.1994536 z M 10.876885,3.1268907 c 0.217306,0.4082186 0.406459,0.8621858 0.56306,1.3539836 h 1.614399 A 6.1795847,6.1795847 0 0 0 10.351656,2.3060546 c 0.191792,0.249858 0.367748,0.5261093 0.525229,0.8208361 z M 10.511776,4.4808743 A 7.0083388,7.0083388 0 0 0 10.100038,3.5412678 C 9.6143989,2.630694 9.0293443,2.0896284 8.4398907,1.9092732 v 2.5716011 z"
     id="path1"
     style="stroke-width:0.879781;fill:#a9a9a9;fill-opacity:1" />
</svg>
