<?xml version="1.0" encoding="UTF-8" standalone="no"?>
<!-- Created with Inkscape (http://www.inkscape.org/) -->

<svg
   width="100"
   height="100"
   viewBox="0 0 26.458333 26.458333"
   version="1.1"
   id="svg5"
   inkscape:version="1.2.2 (732a01da63, 2022-12-09)"
   sodipodi:docname="trash.svg"
   xmlns:inkscape="http://www.inkscape.org/namespaces/inkscape"
   xmlns:sodipodi="http://sodipodi.sourceforge.net/DTD/sodipodi-0.dtd"
   xmlns:xlink="http://www.w3.org/1999/xlink"
   xmlns="http://www.w3.org/2000/svg"
   xmlns:svg="http://www.w3.org/2000/svg">
  <sodipodi:namedview
     id="namedview7"
     pagecolor="#ffffff"
     bordercolor="#000000"
     borderopacity="0.25"
     inkscape:showpageshadow="2"
     inkscape:pageopacity="0.0"
     inkscape:pagecheckerboard="0"
     inkscape:deskcolor="#d1d1d1"
     inkscape:document-units="mm"
     showgrid="false"
     inkscape:zoom="2.8472754"
     inkscape:cx="56.194073"
     inkscape:cy="45.306471"
     inkscape:window-width="1366"
     inkscape:window-height="745"
     inkscape:window-x="-8"
     inkscape:window-y="-8"
     inkscape:window-maximized="1"
     inkscape:current-layer="layer1" />
  <defs
     id="defs2">
    <linearGradient
       inkscape:collect="always"
       id="linearGradient2567">
      <stop
         style="stop-color:#232323;stop-opacity:1;"
         offset="0"
         id="stop2563" />
      <stop
         style="stop-color:#e50000;stop-opacity:1;"
         offset="1"
         id="stop2565" />
    </linearGradient>
    <linearGradient
       inkscape:collect="always"
       xlink:href="#linearGradient2567"
       id="linearGradient2569"
       x1="13.885345"
       y1="13.285981"
       x2="13.598701"
       y2="25.041006"
       gradientUnits="userSpaceOnUse"
       gradientTransform="matrix(1.5554357,0,0,1.5554357,-7.6423637,-13.973221)" />
  </defs>
  <g
     inkscape:label="Capa 1"
     inkscape:groupmode="layer"
     id="layer1">
    <path
       style="fill:url(#linearGradient2569);fill-opacity:1;stroke-width:9.82916;stroke-linejoin:round"
       d="M 4.8826025,6.6465399 C 5.0042702,6.4798236 5.3120582,6.3654774 5.3120582,6.3654774 H 21.89474 c 0,0 0.297526,0.08135 0.41668,0.2044091 0.119162,0.1230506 0.231808,0.5137604 0.231808,0.5137604 L 17.489684,25.000749 c 0,0 -0.073,0.214005 -0.177972,0.293462 -0.104962,0.07945 -0.328243,0.0813 -0.328243,0.0813 H 9.8558893 c 0,0 -0.2020728,-0.02978 -0.3108802,-0.117436 C 9.4362064,25.17043 9.3615937,24.948446 9.3615937,24.948446 L 4.7779861,7.2336703 c 0,0 -0.017051,-0.4204141 0.1046164,-0.5871304 z"
       id="path236"
       sodipodi:nodetypes="zcczcczcczccz" />
    <path
       style="fill:#585858;fill-opacity:1;stroke-width:8.24381;stroke-linejoin:round"
       d="m 16.93782,24.816584 c 0.0665,-0.05004 0.116363,-0.17701 0.116363,-0.17701 L 21.668294,7.5057828 c 0,0 0.03049,-0.1235172 -0.02907,-0.2013014 -0.05956,-0.077788 -0.204402,-0.070524 -0.204402,-0.070524 l -3.273737,-0.00265 c 0,0 -0.154765,0.023689 -0.233164,0.092377 -0.07841,0.068704 -0.10678,0.2329779 -0.10678,0.2329779 L 15.573279,24.6181 c 0,0 -3.34e-4,0.11868 0.05293,0.179181 0.05327,0.06051 0.142634,0.07254 0.142634,0.07254 l 0.954952,-0.0047 c 0,0 0.147517,0.0016 0.214001,-0.04847 z"
       id="path442"
       sodipodi:nodetypes="zcczcczcczcczz" />
    <path
       style="fill:#585858;fill-opacity:1;stroke-width:8.24381;stroke-linejoin:round"
       d="m 10.338364,24.816584 c -0.06649,-0.05004 -0.116362,-0.17701 -0.116362,-0.17701 L 5.6078894,7.5057828 c 0,0 -0.030487,-0.1235172 0.029071,-0.2013014 0.059557,-0.077788 0.2044013,-0.070524 0.2044013,-0.070524 l 3.2737373,-0.00265 c 0,0 0.1547658,0.023689 0.2331645,0.092377 0.078409,0.068704 0.1067806,0.2329779 0.1067806,0.2329779 L 11.702906,24.6181 c 0,0 3.34e-4,0.11868 -0.05293,0.179181 -0.05327,0.06051 -0.142634,0.07254 -0.142634,0.07254 l -0.954952,-0.0047 c 0,0 -0.147517,0.0016 -0.214001,-0.04847 z"
       id="path2534"
       sodipodi:nodetypes="zcczcczcczcczz" />
    <path
       style="fill:#585858;fill-opacity:1;stroke-width:8.24381;stroke-linejoin:round"
       d="m 10.221754,7.3462838 c 0.07612,-0.086124 0.234876,-0.072266 0.234876,-0.072266 h 6.422952 c 0,0 0.199021,-0.0098 0.275527,0.076792 0.07651,0.08656 0.06031,0.23903 0.06031,0.23903 L 15.128838,24.456324 c 0,0 -0.05907,0.165958 -0.151033,0.247237 -0.09196,0.08127 -0.282092,0.09582 -0.282092,0.09582 h -2.095192 c 0,0 -0.174435,-0.01734 -0.25598,-0.08942 -0.08155,-0.07208 -0.115989,-0.228529 -0.115989,-0.228529 L 10.140655,7.6042761 c 0,0 0.005,-0.1718772 0.0811,-0.2579923 z"
       id="path2536"
       sodipodi:nodetypes="zcczcczcczccz" />
    <path
       style="fill:#585858;fill-opacity:1;stroke-width:8.24381;stroke-linejoin:round"
       d="m 4.6218512,4.5854838 c 0.064317,0.047465 0.1992581,0.044227 0.1992581,0.044227 L 22.72939,2.2338029 c 0,0 0.148318,-0.026129 0.200041,-0.094431 0.05171,-0.068357 0.04902,-0.1709367 0.04902,-0.1709367 l -0.02951,-0.2054854 c 0,0 -0.03624,-0.1086741 -0.104163,-0.1600503 -0.06792,-0.051378 -0.209812,-0.026714 -0.209812,-0.026714 l -4.827663,0.645882 c 0,0 -0.278427,-0.4896955 -0.497604,-0.6386975 C 17.090503,1.4343687 16.576541,1.293592 16.576541,1.293592 l -2.962558,0.3916423 -3.066597,0.4138849 c 0,0 -0.337403,0.1738538 -0.488761,0.3958004 -0.1513611,0.2219513 -0.2677514,0.696493 -0.2677514,0.696493 L 4.706794,3.8715999 c 0,0 -0.1222305,0.016434 -0.1696549,0.080699 -0.047423,0.064267 -0.053954,0.1683457 -0.053954,0.1683457 L 4.5360371,4.43545 c 0,0 0.02151,0.1025632 0.08582,0.1500224 z"
       id="path2538"
       sodipodi:nodetypes="zcczcczcczccczcczccz" />
  </g>
</svg>
